<?xml version="1.0" encoding="UTF-8"?>
<svg version="1.1" xmlns="http://www.w3.org/2000/svg" width="27" height="28">
<path d="M0 0 C2.86624771 2.44825325 4.61349969 4.24877735 5.44140625 8 C5.65026453 11.55732806 5.10784988 13.81625576 3.3125 16.875 C-0.08422007 19.99631034 -2.37020826 21.03395399 -7 20.9375 C-10.77036448 19.7592611 -12.45989992 17.97554581 -15 15 C-16.43304064 12.13391871 -16.30644155 10.18699217 -16 7 C-14.37743711 3.98666891 -12.89925309 1.73867218 -10.25 -0.4375 C-6.66498744 -1.33375314 -3.46638537 -1.16003788 0 0 Z M-7 1 C-7.66 2.32 -8.32 3.64 -9 5 C-8.01 5.99 -7.02 6.98 -6 8 C-4.68 7.34 -3.36 6.68 -2 6 C-2.33 4.35 -2.66 2.7 -3 1 C-4.32 1 -5.64 1 -7 1 Z M-12 3 C-14.08901197 6.39464446 -14.34361606 9.04841529 -14 13 C-13.34 13.66 -12.68 14.32 -12 15 C-11.71125 14.21625 -11.4225 13.4325 -11.125 12.625 C-10 10 -10 10 -8 8 C-8.66 6.35 -9.32 4.7 -10 3 C-10.66 3 -11.32 3 -12 3 Z M0 3 C-0.66 4.98 -1.32 6.96 -2 9 C-1.34 9.66 -0.68 10.32 0 11 C0.625 13.625 0.625 13.625 1 16 C3.44988842 13.55011158 3.7658669 12.43395207 4 9 C2.65873157 5.73249119 2.65873157 5.73249119 1 3 C0.67 3 0.34 3 0 3 Z M-9 10 C-9.67801034 12.90073181 -9.67801034 12.90073181 -10 16 C-9.34 16.66 -8.68 17.32 -8 18 C-6.57055055 15.64561267 -5.91338739 14.51967567 -6.375 11.75 C-6.58125 11.1725 -6.7875 10.595 -7 10 C-7.66 10 -8.32 10 -9 10 Z M-4 10 C-4 12.31 -4 14.62 -4 17 C-3.01 17 -2.02 17 -1 17 C-1 15.02 -1 13.04 -1 11 C-1.99 10.67 -2.98 10.34 -4 10 Z M-6 17 C-6.33 17.66 -6.66 18.32 -7 19 C-6.01 18.67 -5.02 18.34 -4 18 C-4.66 17.67 -5.32 17.34 -6 17 Z " fill="#FFFFFF" transform="translate(19,4)"/>
<path d="M0 0 C0.99 0.495 0.99 0.495 2 1 C1.01 1.495 1.01 1.495 0 2 C0 1.34 0 0.68 0 0 Z " fill="#FFFFFF" transform="translate(13,6)"/>
</svg>
